<?xml version="1.0" encoding="UTF-8" standalone="no"?>
<!DOCTYPE svg PUBLIC "-//W3C//DTD SVG 1.1//EN" "http://www.w3.org/Graphics/SVG/1.1/DTD/svg11.dtd">
<svg xmlns="http://www.w3.org/2000/svg" version="1.1" viewBox="0.00 0.00 512.00 512.00">
<path fill="#000000" d="
  M 250.96 0.00
  L 261.17 0.00
  Q 366.28 3.76 438.77 76.85
  C 485.07 123.53 510.02 185.02 512.00 251.04
  L 512.00 261.17
  Q 508.23 366.28 435.15 438.77
  C 388.48 485.06 327.00 510.01 260.99 512.00
  L 252.15 512.00
  Q 188.08 510.62 132.04 479.98
  Q 131.65 479.77 131.22 479.88
  L 13.92 511.64
  Q 13.54 511.75 13.26 511.47
  L 0.65 498.85
  A 0.97 0.94 30.8 0 1 0.40 497.92
  L 32.11 380.80
  Q 32.23 380.35 32.01 379.94
  Q 1.34 323.85 0.00 259.70
  L 0.00 250.89
  C 2.02 184.92 26.97 123.49 73.24 76.84
  Q 145.77 3.72 250.96 0.00
  Z
  M 136.37 447.83
  Q 154.12 458.41 169.49 464.77
  C 206.79 480.21 248.40 485.51 288.70 479.62
  C 377.64 466.62 452.18 400.48 474.70 313.15
  C 490.73 250.95 479.94 183.42 443.54 130.12
  Q 398.41 64.06 321.86 39.80
  C 257.68 19.46 183.90 31.11 128.89 69.25
  C 35.28 134.15 3.42 254.72 53.92 357.27
  Q 55.81 361.10 64.19 375.73
  Q 64.46 376.20 64.31 376.73
  L 38.03 473.74
  A 0.19 0.19 0.0 0 0 38.27 473.97
  L 135.30 447.68
  Q 135.86 447.53 136.37 447.83
  Z"
/>
<path fill="#000000" d="
  M 310.60 232.85
  L 333.86 245.52
  A 0.34 0.34 0.0 0 1 333.99 245.99
  L 330.28 252.38
  A 0.34 0.34 0.0 0 1 329.82 252.51
  L 307.66 239.47
  A 0.34 0.34 0.0 0 0 307.15 239.77
  L 307.51 261.65
  A 0.34 0.34 0.0 0 1 307.17 262.00
  L 299.67 262.00
  A 0.34 0.34 0.0 0 1 299.33 261.66
  L 299.62 239.78
  A 0.34 0.34 0.0 0 0 299.11 239.48
  L 277.01 252.58
  A 0.34 0.34 0.0 0 1 276.55 252.46
  L 272.79 246.06
  A 0.34 0.34 0.0 0 1 272.92 245.59
  L 296.23 232.92
  A 0.34 0.34 0.0 0 0 296.23 232.32
  L 272.91 219.65
  A 0.34 0.34 0.0 0 1 272.78 219.18
  L 276.56 212.79
  A 0.34 0.34 0.0 0 1 277.02 212.67
  L 299.19 225.71
  A 0.34 0.34 0.0 0 0 299.70 225.41
  L 299.33 203.59
  A 0.34 0.34 0.0 0 1 299.67 203.24
  L 307.17 203.24
  A 0.34 0.34 0.0 0 1 307.51 203.59
  L 307.08 225.41
  A 0.34 0.34 0.0 0 0 307.59 225.71
  L 329.82 212.73
  A 0.34 0.34 0.0 0 1 330.28 212.85
  L 334.00 219.24
  A 0.34 0.34 0.0 0 1 333.87 219.71
  L 310.60 232.25
  A 0.34 0.34 0.0 0 0 310.60 232.85
  Z"
/>
<path fill="#000000" d="
  M 106.62 245.29
  L 146.95 245.29
  A 0.36 0.36 0.0 0 1 147.31 245.65
  L 147.31 256.14
  A 0.36 0.36 0.0 0 1 146.95 256.50
  L 106.62 256.49
  A 0.36 0.36 0.0 0 0 106.26 256.85
  L 106.26 301.64
  A 0.36 0.36 0.0 0 1 105.90 302.00
  L 94.07 302.00
  A 0.36 0.36 0.0 0 1 93.71 301.64
  L 93.73 207.84
  A 0.36 0.36 0.0 0 1 94.09 207.48
  L 153.68 207.49
  A 0.36 0.36 0.0 0 1 154.04 207.85
  L 154.04 218.31
  A 0.36 0.36 0.0 0 1 153.68 218.67
  L 106.62 218.68
  A 0.36 0.36 0.0 0 0 106.26 219.04
  L 106.26 244.93
  A 0.36 0.36 0.0 0 0 106.62 245.29
  Z"
/>
<path fill="#000000" d="
  M 205.23 234.26
  L 221.63 234.26
  A 0.36 0.36 0.0 0 0 221.98 233.99
  L 228.49 207.76
  A 0.36 0.36 0.0 0 1 228.84 207.49
  L 236.29 207.49
  A 0.36 0.36 0.0 0 1 236.64 207.94
  L 230.21 233.81
  A 0.36 0.36 0.0 0 0 230.56 234.26
  L 248.64 234.26
  A 0.36 0.36 0.0 0 1 249.00 234.62
  L 249.00 242.46
  A 0.36 0.36 0.0 0 1 248.64 242.82
  L 228.15 242.81
  A 0.36 0.36 0.0 0 0 227.80 243.08
  L 222.14 266.28
  A 0.36 0.36 0.0 0 0 222.49 266.73
  L 241.20 266.72
  A 0.36 0.36 0.0 0 1 241.56 267.08
  L 241.56 274.90
  A 0.36 0.36 0.0 0 1 241.20 275.26
  L 220.09 275.26
  A 0.36 0.36 0.0 0 0 219.74 275.53
  L 213.28 301.73
  A 0.36 0.36 0.0 0 1 212.93 302.00
  L 205.48 301.99
  A 0.36 0.36 0.0 0 1 205.13 301.54
  L 211.51 275.71
  A 0.36 0.36 0.0 0 0 211.16 275.26
  L 194.76 275.26
  A 0.36 0.36 0.0 0 0 194.41 275.53
  L 187.95 301.73
  A 0.36 0.36 0.0 0 1 187.60 302.00
  L 180.15 302.00
  A 0.36 0.36 0.0 0 1 179.80 301.55
  L 186.19 275.71
  A 0.36 0.36 0.0 0 0 185.84 275.26
  L 167.74 275.26
  A 0.36 0.36 0.0 0 1 167.38 274.90
  L 167.38 267.08
  A 0.36 0.36 0.0 0 1 167.74 266.72
  L 188.23 266.73
  A 0.36 0.36 0.0 0 0 188.58 266.46
  L 194.25 243.27
  A 0.36 0.36 0.0 0 0 193.90 242.82
  L 175.15 242.82
  A 0.36 0.36 0.0 0 1 174.79 242.46
  L 174.79 234.62
  A 0.36 0.36 0.0 0 1 175.15 234.26
  L 196.30 234.26
  A 0.36 0.36 0.0 0 0 196.65 233.99
  L 203.17 207.76
  A 0.36 0.36 0.0 0 1 203.52 207.49
  L 210.97 207.49
  A 0.36 0.36 0.0 0 1 211.32 207.94
  L 204.88 233.81
  A 0.36 0.36 0.0 0 0 205.23 234.26
  Z
  M 219.77 243.11
  A 0.31 0.31 0.0 0 0 219.47 242.73
  L 202.71 242.73
  A 0.31 0.31 0.0 0 0 202.41 242.97
  L 196.61 266.43
  A 0.31 0.31 0.0 0 0 196.92 266.81
  L 213.67 266.81
  A 0.31 0.31 0.0 0 0 213.97 266.57
  L 219.77 243.11
  Z"
/>
<path fill="#000000" d="
  M 370.11 256.23
  L 415.37 207.59
  A 0.32 0.32 0.0 0 1 415.60 207.49
  L 429.95 207.49
  A 0.32 0.32 0.0 0 1 430.19 208.03
  L 388.69 251.71
  A 0.32 0.32 0.0 0 0 388.68 252.14
  L 432.21 301.47
  A 0.32 0.32 0.0 0 1 431.97 302.00
  L 416.49 302.00
  A 0.32 0.32 0.0 0 1 416.25 301.89
  L 379.21 260.17
  A 0.32 0.32 0.0 0 0 378.74 260.17
  L 369.65 269.88
  A 0.32 0.32 0.0 0 0 369.56 270.10
  L 369.57 301.68
  A 0.32 0.32 0.0 0 1 369.25 302.00
  L 357.32 302.00
  A 0.32 0.32 0.0 0 1 357.00 301.68
  L 357.00 207.81
  A 0.32 0.32 0.0 0 1 357.32 207.49
  L 369.24 207.49
  A 0.32 0.32 0.0 0 1 369.56 207.81
  L 369.56 256.02
  A 0.32 0.32 0.0 0 0 370.11 256.23
  Z"
/>
</svg>
